<?xml version="1.0" encoding="utf-8"?>
<!-- Generator: Adobe Illustrator 24.3.0, SVG Export Plug-In . SVG Version: 6.00 Build 0)  -->
<svg version="1.1" id="Слой_1" xmlns="http://www.w3.org/2000/svg" xmlns:xlink="http://www.w3.org/1999/xlink" x="0px" y="0px"
	 viewBox="0 0 273 201.6" style="enable-background:new 0 0 273 201.6;" xml:space="preserve">
<style type="text/css">
	.st0{fill:none;stroke:#38313B;stroke-width:0.7692;stroke-miterlimit:10;}
	.st1{opacity:0.95;fill:#38313B;enable-background:new    ;}
	.st2{font-family:'ProductSansInfanity';}
	.st3{font-size:87.6454px;}
</style>
<path class="st0" d="M79.8,149.7l77.8,1.3c-6.3-0.7-12.3-3.3-17.4-7.3c-3.7-3.1-6.8-7-8.9-11.5c-2.6-5.6-2.8-10.3-3-13.7
	c-0.2-5.4-0.4-10.7,3-15.9c1.9-2.8,4.3-5.1,7.2-6.7c4-2.2,8.6-3,13.1-2.5c2.8,0.3,8.1,0.7,12.1,4.8c0.5,0.5,4.1,4.2,3.9,9.2
	c0,0.4-0.1,4.1-1.6,4.5c-1,0.2-1.4-2-3.6-3.5c-3.1-2.1-7.1-1.1-7.9-1c-2.3,0.5-4.3,1.7-5.9,3.5c-2.9,3.4-2.4,7.9-2.3,8.6
	c0.8,6.3,6.7,9.7,8.5,10.8c6.3,3.7,12.8,2.9,14.8,2.5c2.1-0.3,8.3-1.3,12.8-6.4c3.7-4.2,4.2-9,4.6-12.1c0.3-3,0.2-6-0.3-8.9
	c-0.3-2.9-0.9-5.8-2-8.6c-0.4-0.9-1.8-4.3-5.6-8.6c-2.2-2.5-8.1-9.2-17.7-12.4c-15-5.1-28.6,1.6-31.2,2.9c1.7-5,2.5-10.3,2.3-15.6
	c-0.2-5.5-1.4-10.9-3.6-15.9c-2-4.5-4.8-8.6-8.2-12.1c-2.2,2.2-4.2,4.7-5.9,7.3c-2.1,3.3-3.7,6.8-4.9,10.5c-1.6,3.8-2.2,8-2,12.1
	c0.5,6.8,3.6,11,2,12.4c-1.3,1.1-3.7-1.1-11.2-2.9c-3.1-0.8-6.7-1.6-11.2-1.3c-3,0.2-6,0.9-8.9,1.9c-3.2,1.1-6.3,2.5-9.2,4.1
	c-6.1,3.6-15.4,12.1-17.7,24.8c-0.6,3.4-1.7,9.4,1.3,15.9c0.9,1.9,4,8.7,11.8,11.5c9,3.2,17-1.5,18.7-2.5c2.4-1.4,6.8-4.1,8.2-9.2
	c0.3-1,1.7-6.5-2-10.2c-3.3-3.3-9-3.7-11.8-1.6c-1.9,1.5-2.1,3.9-3.3,3.8c-1.2-0.1-2-2.3-2.3-3.8c-1-4.8,2.2-9.1,2.6-9.6
	c3.6-4.6,9.3-5.4,11.5-5.7c3.7-0.6,7.4-0.2,10.8,1.3c5.5,2.5,8,7.2,10.2,11.5c2.1,4.1,4.9,9.4,4.3,16.2c-1,11.5-11,18.5-14.4,21
	C92.2,146.5,86.2,148.9,79.8,149.7z"/>
<text transform="matrix(0.9153 0 0 1 51.2246 140.6629)" class="st1 st2 st3">oYu</text>
</svg>
